<?xml version="1.0" encoding="utf-8"?>
<!-- Generator: Adobe Illustrator 19.0.0, SVG Export Plug-In . SVG Version: 6.00 Build 0)  -->
<svg version="1.1" id="Layer_1" xmlns="http://www.w3.org/2000/svg" xmlns:xlink="http://www.w3.org/1999/xlink" x="0px" y="0px"
	 viewBox="0 0 141.7 141.7" style="enable-background:new 0 0 141.7 141.7;" xml:space="preserve">
<style type="text/css">
	.st0{fill:#30B14A;}
	.st1{fill:#FFFFFF;}
</style>
<path id="XMLID_6310_" class="st0" d="M96.6,141.7H45.1C20.2,141.7,0,121.5,0,96.6V45.1C0,20.2,20.2,0,45.1,0h51.5
	c24.9,0,45.1,20.2,45.1,45.1v51.5C141.7,121.5,121.5,141.7,96.6,141.7z"/>
<path id="XMLID_6580_" class="st0" d="M298.9,141.7H160.1c-0.8,0-1.5-0.7-1.5-1.5V1.5c0-0.8,0.7-1.5,1.5-1.5h138.8
	c0.8,0,1.5,0.7,1.5,1.5v138.8C300.3,141.1,299.7,141.7,298.9,141.7z"/>
<g id="XMLID_6320_">
	<path id="XMLID_6895_" class="st1" d="M116,66.8c0-0.1-0.1-0.1-0.1-0.2c-3.8-8-9.8-14.8-17.3-19.6c-7.7-4.9-16.6-7.5-25.8-7.5
		c-9.2,0-18.1,2.6-25.8,7.5c-7.5,4.8-13.4,11.5-17.3,19.5c-0.4,0.8-0.5,1.8,0,2.7c3.8,8,9.8,14.8,17.3,19.6
		c7.7,4.9,16.6,7.5,25.8,7.5c9.2,0,18.1-2.6,25.8-7.5c7.5-4.8,13.5-11.6,17.3-19.6C116.2,68.4,116.3,67.6,116,66.8L116,66.8z
		 M72.8,90.3c-15.5,0-29.9-8.7-37-22.4c7.2-13.6,21.6-22.4,37-22.4c15.5,0,29.9,8.7,37,22.4C102.6,81.5,88.2,90.3,72.8,90.3
		L72.8,90.3z M72.8,90.3"/>
	<path id="XMLID_6839_" class="st1" d="M72.8,54.7c-7.3,0-13.2,5.9-13.2,13.2c0,7.3,5.9,13.2,13.2,13.2c7.3,0,13.2-5.9,13.2-13.2
		C86,60.6,80.1,54.7,72.8,54.7L72.8,54.7z M72.8,75.1c-4,0-7.2-3.2-7.2-7.2c0-4,3.2-7.2,7.2-7.2c4,0,7.2,3.2,7.2,7.2
		C80,71.8,76.7,75.1,72.8,75.1L72.8,75.1z M72.8,75.1"/>
	<path id="XMLID_6832_" class="st1" d="M65.6,90.3"/>
</g>
</svg>
